<?xml version="1.0" encoding="utf-8"?>
<!-- Generator: Adobe Illustrator 24.2.1, SVG Export Plug-In . SVG Version: 6.00 Build 0)  -->
<svg version="1.1" id="Capa_1" xmlns="http://www.w3.org/2000/svg" xmlns:xlink="http://www.w3.org/1999/xlink" x="0px" y="0px"
	 viewBox="0 0 79.2 61.2" style="enable-background:new 0 0 79.2 61.2;" xml:space="preserve">
<style type="text/css">
	.st0{fill:#E9521E;}
	.st1{font-family:'Leelawadee-Bold';}
	.st2{font-size:16.2501px;}
	.st3{fill:#FFFFFF;}
	.st4{font-size:14.6468px;}
	.st5{font-family:'ArialRoundedMTBold';}
	.st6{font-size:3.4988px;}
	.st7{fill:#ED6D1E;}
	.st8{fill:none;stroke:#ED6D1E;stroke-width:0.3279;stroke-miterlimit:10;}
	.st9{clip-path:url(#SVGID_2_);}
	.st10{fill:none;stroke:#ED6D1E;stroke-width:0.2132;stroke-miterlimit:10;}
	.st11{fill:#595A5C;}
	.st12{clip-path:url(#SVGID_2_);fill:#ED6D1E;}
</style>
<g>
	<g>
		<g>
			<text transform="matrix(1 0 0 1 37.6469 47.2967)" class="st0 st1 st2">Villa</text>
			<text transform="matrix(1 0 0 1 5.3486 47.1929)" class="st3 st1 st4">Inmo</text>
		</g>
		<text transform="matrix(1 0 0 1 13.2602 51.5253)" class="st3 st5 st6">Descubre tu espacio perfecto</text>
		<g>
			<path class="st7" d="M62.58,9.31l-0.04-0.06c0-0.01-0.01-0.01-0.02-0.02c-0.01-0.01-0.01-0.02-0.02-0.02
				c-0.02-0.03-0.04-0.05-0.06-0.08c0,0,0,0,0,0c-0.02-0.02-0.05-0.05-0.08-0.07c-0.01-0.01-0.02-0.01-0.02-0.02
				C62.31,9.02,62.28,9,62.25,8.99c0,0-0.01,0-0.01-0.01c-0.03-0.01-0.07-0.02-0.1-0.03c-0.01,0-0.02,0-0.03-0.01
				c-0.04-0.01-0.07-0.01-0.11-0.01h-5.27c-0.22,0-0.42,0.12-0.53,0.31l-10.04,17.4c-0.17,0.29-0.07,0.67,0.22,0.84
				c0.1,0.06,0.2,0.08,0.31,0.08c0.21,0,0.42-0.11,0.53-0.31l9.87-17.09h3.86l-13,22.52L34.97,10.21l-0.71,1.22L46.88,33.3h-3.86
				l-9.94-17.21c-0.17-0.29-0.54-0.39-0.84-0.22c-0.29,0.17-0.39,0.54-0.22,0.84l10.11,17.52c0.11,0.19,0.31,0.31,0.53,0.31h5.27
				c0.04,0,0.07,0,0.11-0.01c0.01,0,0.02,0,0.03-0.01c0.03-0.01,0.07-0.02,0.1-0.03c0,0,0.01,0,0.01-0.01
				c0.03-0.01,0.06-0.03,0.08-0.04c0.01-0.01,0.02-0.01,0.02-0.02c0.03-0.02,0.06-0.04,0.08-0.07c0,0,0,0,0,0
				c0.02-0.02,0.04-0.05,0.06-0.08c0.01-0.01,0.01-0.02,0.02-0.02c0-0.01,0.01-0.01,0.02-0.02l13.54-23.44l0.57-0.96
				C62.67,9.66,62.67,9.47,62.58,9.31z"/>
		</g>
	</g>
	<g>
		<rect x="28.24" y="24.08" class="st8" width="2.09" height="2.09"/>
		<rect x="31.19" y="24.08" class="st8" width="2.09" height="2.09"/>
		<rect x="28.24" y="27" class="st8" width="2.09" height="2.09"/>
		<rect x="31.19" y="27" class="st8" width="2.09" height="2.09"/>
	</g>
	<path class="st3" d="M33.67,11.14L33.67,11.14l0.21-0.36l0,0l0.71-1.22l-0.18-0.32c0-0.01-0.01-0.02-0.02-0.02
		c-0.01-0.01-0.01-0.02-0.02-0.02c-0.02-0.03-0.04-0.05-0.07-0.08c0,0,0,0,0,0c-0.02-0.02-0.05-0.05-0.08-0.07
		c-0.01-0.01-0.02-0.01-0.02-0.02C34.18,9.02,34.15,9,34.12,8.99c0,0-0.01,0-0.01-0.01c-0.03-0.01-0.07-0.02-0.1-0.03
		c-0.01,0-0.02,0-0.03-0.01c-0.04-0.01-0.07-0.01-0.11-0.01H28.6c-0.22,0-0.42,0.12-0.53,0.31l-11.43,19.8
		c-0.17,0.29-0.07,0.67,0.22,0.84c0.1,0.06,0.2,0.08,0.31,0.08c0.21,0,0.42-0.11,0.53-0.31l11.25-19.49h3.86L19.28,33.61
		c-0.17,0.29-0.07,0.67,0.22,0.84c0.29,0.17,0.67,0.07,0.84-0.22L33.67,11.14L33.67,11.14z"/>
</g>
<g>
	<defs>
		<rect id="SVGID_1_" x="81.2" width="79.2" height="61.2"/>
	</defs>
	<clipPath id="SVGID_2_">
		<use xlink:href="#SVGID_1_"  style="overflow:visible;"/>
	</clipPath>
	<g class="st9">
		<g>
			<path class="st7" d="M111.49,47.27l-0.02-0.04c0-0.01-0.01-0.01-0.01-0.01c0-0.01-0.01-0.01-0.01-0.02
				c-0.01-0.02-0.03-0.04-0.04-0.05c0,0,0,0,0,0c-0.02-0.02-0.03-0.03-0.05-0.04c0,0-0.01-0.01-0.02-0.01
				c-0.02-0.01-0.04-0.02-0.05-0.03c0,0,0,0-0.01,0c-0.02-0.01-0.04-0.01-0.06-0.02c-0.01,0-0.01,0-0.02,0
				c-0.02,0-0.05-0.01-0.07-0.01h-3.43c-0.14,0-0.27,0.08-0.35,0.2l-6.53,11.31c-0.11,0.19-0.04,0.43,0.15,0.54
				c0.06,0.04,0.13,0.05,0.2,0.05c0.14,0,0.27-0.07,0.35-0.2l6.41-11.11h2.51l-8.45,14.64l-8.43-14.61l-0.46,0.79l8.21,14.22h-2.51
				l-6.46-11.19c-0.11-0.19-0.35-0.26-0.54-0.15c-0.19,0.11-0.26,0.35-0.15,0.54l6.58,11.39c0.07,0.12,0.2,0.2,0.35,0.2h3.43
				c0.02,0,0.05,0,0.07-0.01c0.01,0,0.01,0,0.02,0c0.02-0.01,0.04-0.01,0.06-0.02c0,0,0,0,0.01,0c0.02-0.01,0.04-0.02,0.05-0.03
				c0.01,0,0.01-0.01,0.02-0.01c0.02-0.01,0.04-0.03,0.05-0.04c0,0,0,0,0,0c0.02-0.02,0.03-0.03,0.04-0.05
				c0-0.01,0.01-0.01,0.01-0.02c0,0,0.01-0.01,0.01-0.01l8.8-15.24l0.37-0.62C111.55,47.5,111.55,47.38,111.49,47.27z"/>
		</g>
		<g>
			<rect x="89.17" y="56.88" class="st10" width="1.36" height="1.36"/>
			<rect x="91.09" y="56.88" class="st10" width="1.36" height="1.36"/>
			<rect x="89.17" y="58.78" class="st10" width="1.36" height="1.36"/>
			<rect x="91.09" y="58.78" class="st10" width="1.36" height="1.36"/>
		</g>
		<path class="st11" d="M92.7,48.46L92.7,48.46l0.14-0.23l0,0l0.46-0.79l-0.12-0.21c0-0.01-0.01-0.01-0.01-0.02
			c0-0.01-0.01-0.01-0.01-0.02c-0.01-0.02-0.03-0.04-0.04-0.05c0,0,0,0,0,0c-0.02-0.02-0.03-0.03-0.05-0.04c0,0-0.01-0.01-0.02-0.01
			c-0.02-0.01-0.04-0.02-0.05-0.03c0,0,0,0-0.01,0c-0.02-0.01-0.04-0.01-0.06-0.02c-0.01,0-0.01,0-0.02,0
			c-0.02,0-0.05-0.01-0.07-0.01H89.4c-0.14,0-0.27,0.08-0.35,0.2L81.63,60.1c-0.11,0.19-0.04,0.43,0.15,0.54
			c0.06,0.04,0.13,0.05,0.2,0.05c0.14,0,0.27-0.07,0.35-0.2l7.31-12.67h2.51l-8.8,15.24c-0.11,0.19-0.04,0.43,0.15,0.54
			c0.19,0.11,0.43,0.04,0.54-0.15L92.7,48.46L92.7,48.46z"/>
	</g>
	<polygon class="st12" points="105.62,60.13 159.38,60.13 159.38,58.78 106.39,58.78 	"/>
</g>
<text transform="matrix(1 0 0 1 84.6344 7.2817)" style="font-family:'Outfit-Black'; font-size:3.1429px;">Tipografias</text>
<text transform="matrix(1 0 0 1 85.1127 12.0531)" class="st11" style="font-family:'AllerDisplay'; font-size:2.2668px;">Aller Display</text>
<g>
	<text transform="matrix(1 0 0 1 85.1127 15.1098)" style="font-family:'AllerDisplay'; font-size:2.2668px;">ABCDEFabcdef123456789</text>
</g>
<text transform="matrix(1 0 0 1 85.1127 18.7166)" class="st11" style="font-family:'ProximaNova-Black'; font-size:2.2668px;">Proxima Nova Black</text>
<g>
	<text transform="matrix(1 0 0 1 85.1127 21.7733)" style="font-family:'ProximaNova-Black'; font-size:2.2668px;">ABCDEFabcdef123456789</text>
</g>
<text transform="matrix(1 0 0 1 85.1127 25.6957)" class="st11 st5" style="font-size:2.2668px;">Proxima Nova Black</text>
<g>
	<text transform="matrix(1 0 0 1 85.1127 28.7524)" class="st5" style="font-size:2.2668px;">ABCDEFabcdef123456789</text>
</g>
</svg>
