<svg width="166" height="163" viewBox="0 0 166 163" fill="none" xmlns="http://www.w3.org/2000/svg">
<path d="M46.5 64.8673L59 72.0826V38.5V12.5L46.5 20V27V64.8673Z" fill="#FFF9F9"/>
<path d="M114.5 123H115L116 123.5V117.5V114.5V113L113 122.5V123H113.5H114.5Z" fill="#FFF9F9"/>
<path d="M105.5 121L116 92V71V51.5V48L110.5 51.5L103 56L90.5 63.5V71V119.584C96.17 120.084 102.89 120 105.5 121Z" fill="#FFF9F9"/>
<path d="M156 138.5V128.634V52L132 38.5L119.5 46V81V103.5V123.5L133 128.634C146 133 139 130.5 156 138.5Z" fill="#FFF9F9"/>
<path d="M47 123.5L63 121V116V105V80L46.5 70.5L33 78.5V130C36.4168 126.159 43.4541 124.894 47 123.5Z" fill="#FFF9F9"/>
<path d="M23 151V84.5L29 81V151H23Z" fill="#FFF9F9"/>
<path d="M31.1794 150.429V138.717H36.3075V139.94C36.9597 139.468 37.6836 139.101 38.4521 138.853C39.2264 138.613 40.034 138.494 40.8454 138.501C42.5294 138.501 43.7597 138.938 44.5365 139.812C45.3133 140.686 45.7 142.068 45.6967 143.958V150.429H40.5753V144.925C40.5753 144.051 40.4383 143.45 40.1643 143.123C39.8902 142.795 39.4129 142.631 38.7322 142.631C37.9776 142.631 37.3848 142.815 36.9539 143.183C36.7375 143.372 36.567 143.607 36.4551 143.871C36.3432 144.134 36.2927 144.419 36.3075 144.704V150.44L31.1794 150.429Z" fill="#FFF9F9"/>
<path d="M48.3684 150.429V138.717H53.4583V139.94C54.7206 138.981 56.2741 138.474 57.8654 138.501C58.7935 138.501 59.5714 138.669 60.199 139.006C60.8707 139.384 61.428 139.933 61.8133 140.595C62.4967 139.922 63.3025 139.381 64.1884 139.002C65.0632 138.653 65.9996 138.48 66.943 138.493C68.5661 138.493 69.7545 138.93 70.5081 139.804C71.2616 140.678 71.639 142.06 71.6401 143.95V150.429H66.5701V144.925C66.5701 144.069 66.4364 143.472 66.169 143.134C65.9016 142.796 65.4474 142.628 64.8066 142.628C64.085 142.628 63.521 142.812 63.1144 143.18C62.7077 143.548 62.5039 144.055 62.5028 144.701V150.437H57.5306V144.925C57.5306 144.069 57.3974 143.472 57.1311 143.134C56.8648 142.796 56.4074 142.628 55.7588 142.628C55.0428 142.628 54.4815 142.812 54.0749 143.18C53.6682 143.548 53.4649 144.055 53.4649 144.701V150.437L48.3684 150.429Z" fill="#FFF9F9"/>
<path d="M73.5626 144.578C73.5626 142.59 74.267 141.05 75.6758 139.958C77.0846 138.865 79.0735 138.319 81.6425 138.319C84.2214 138.319 86.2103 138.865 87.6092 139.958C89.008 141.05 89.7074 142.592 89.7074 144.583C89.7074 146.57 89.008 148.109 87.6092 149.2C86.2103 150.29 84.2214 150.836 81.6425 150.838C79.0724 150.838 77.0835 150.292 75.6758 149.2C74.2681 148.107 73.5637 146.566 73.5626 144.578ZM78.9823 144.578C78.9823 145.381 79.221 146.021 79.6983 146.499C80.1757 146.976 80.8182 147.214 81.6259 147.213C82.4347 147.213 83.0778 146.975 83.5551 146.499C84.0325 146.022 84.2711 145.382 84.2711 144.578C84.2711 143.768 84.0325 143.127 83.5551 142.654C83.0778 142.181 82.4347 141.944 81.6259 141.944C80.8182 141.944 80.1757 142.181 79.6983 142.654C79.221 143.127 78.9823 143.768 78.9823 144.578Z" fill="#FFF9F9"/>
<path d="M109.416 137.757V134.786H114.645V137.757H109.416ZM109.416 150.43V138.717H114.645V150.429L109.416 150.43Z" fill="#F34511"/>
<path d="M117.699 150.429V135.203H122.929V150.429H117.699Z" fill="#F34511"/>
<path d="M125.983 150.429V135.203H131.212V150.429H125.983Z" fill="#F34511"/>
<path d="M144.35 148.923C143.718 149.64 142.924 150.183 142.04 150.502C141.139 150.835 139.998 151.001 138.615 151C136.745 151 135.342 150.664 134.406 149.993C133.47 149.322 133.001 148.313 133 146.965C132.998 146.55 133.054 146.138 133.165 145.74C133.26 145.392 133.412 145.064 133.614 144.771C134.021 144.237 134.566 143.834 135.185 143.609C135.845 143.355 137.08 143.164 138.891 143.036C139.488 142.993 140.266 142.954 141.224 142.919C143.153 142.833 144.117 142.547 144.116 142.06C144.116 141.724 143.913 141.455 143.507 141.252C143.101 141.05 142.551 140.948 141.857 140.947C140.953 140.947 140.308 141.039 139.922 141.225C139.738 141.308 139.579 141.44 139.46 141.607C139.341 141.775 139.267 141.972 139.244 142.178H133.964C134.074 140.69 134.724 139.62 135.914 138.971C137.104 138.322 139.07 137.999 141.813 138.002C143.08 137.983 144.346 138.098 145.591 138.346C146.615 138.575 147.39 138.908 147.916 139.346C148.467 139.794 148.888 140.393 149.132 141.075C149.372 141.749 149.491 142.714 149.49 143.97V148.712C149.478 149.067 149.517 149.423 149.606 149.767C149.673 150.001 149.811 150.205 150 150.351V150.603H144.679C144.583 150.348 144.508 150.085 144.454 149.816C144.397 149.522 144.362 149.223 144.35 148.923ZM144.332 144.888C143.799 145.173 142.888 145.362 141.6 145.455C141.227 145.477 140.94 145.497 140.742 145.52C139.991 145.59 139.48 145.709 139.211 145.872C139.082 145.947 138.976 146.058 138.904 146.192C138.833 146.327 138.799 146.48 138.806 146.633C138.802 146.814 138.845 146.992 138.93 147.15C139.015 147.307 139.14 147.437 139.291 147.526C139.613 147.738 140.07 147.844 140.663 147.842C141.786 147.842 142.683 147.6 143.354 147.114C143.667 146.91 143.924 146.626 144.101 146.289C144.277 145.951 144.367 145.572 144.362 145.188C144.362 145.102 144.362 145.039 144.362 145.001C144.357 144.962 144.347 144.924 144.332 144.888Z" fill="#F34511"/>
<path d="M8.05688 154.537C8.58049 154.456 9.10968 154.415 9.63971 154.415C10.7104 154.415 11.4711 154.669 11.975 155.149C12.4788 155.629 12.7888 156.307 12.7888 157.258C12.7888 158.209 12.4987 159.003 11.9601 159.544C11.4214 160.085 10.5314 160.39 9.41099 160.39C8.95924 160.392 8.50774 160.369 8.05854 160.321L8.05688 154.537ZM8.80106 159.734C9.05071 159.77 9.30299 159.785 9.55518 159.779C11.1463 159.779 12.0098 158.872 12.0098 157.284C12.0197 155.896 11.2491 155.018 9.67451 155.018C9.38141 155.012 9.08859 155.038 8.80106 155.095V159.734Z" fill="#F34511"/>
<path d="M14.1777 158.366C14.196 159.405 14.8407 159.831 15.5981 159.831C15.9919 159.843 16.3834 159.769 16.7451 159.615L16.8727 160.162C16.4384 160.348 15.9683 160.437 15.4954 160.424C14.2208 160.424 13.4601 159.57 13.4601 158.294C13.4601 157.017 14.196 156.016 15.4009 156.016C16.7534 156.016 17.113 157.229 17.113 158.005C17.1118 158.125 17.1035 158.244 17.0881 158.363L14.1777 158.366ZM16.3854 157.817C16.3937 157.325 16.1882 156.57 15.3412 156.57C14.5805 156.57 14.2457 157.284 14.1811 157.817H16.3854Z" fill="#F34511"/>
<path d="M17.9384 159.552C18.2353 159.742 18.5794 159.848 18.9329 159.857C19.4798 159.857 19.7367 159.579 19.7367 159.23C19.7367 158.881 19.5229 158.663 18.966 158.453C18.2235 158.182 17.8721 157.764 17.8721 157.258C17.8721 156.578 18.4108 156.019 19.3008 156.019C19.6575 156.016 20.0087 156.106 20.3185 156.281L20.1312 156.84C19.8781 156.679 19.5834 156.594 19.2826 156.594C18.8384 156.594 18.5898 156.856 18.5898 157.171C18.5898 157.52 18.8384 157.678 19.3771 157.886C20.0964 158.166 20.4643 158.531 20.4643 159.159C20.4643 159.902 19.8991 160.424 18.9163 160.424C18.5106 160.431 18.1102 160.332 17.7561 160.136L17.9384 159.552Z" fill="#F34511"/>
<path d="M24.3791 160.18C24.0084 160.349 23.6038 160.433 23.1957 160.426C21.946 160.426 21.1322 159.562 21.1322 158.271C21.1322 156.979 22.0057 156.029 23.3581 156.029C23.718 156.026 24.0743 156.1 24.4023 156.247L24.2365 156.842C23.9691 156.698 23.6673 156.628 23.3631 156.64C22.4134 156.64 21.8996 157.355 21.8996 158.236C21.8996 159.22 22.5161 159.816 23.3366 159.816C23.6573 159.818 23.9741 159.746 24.2614 159.605L24.3791 160.18Z" fill="#F34511"/>
<path d="M28.7216 159.185C28.7216 159.623 28.7216 160.005 28.7547 160.333H28.0917L28.0487 159.643H28.0321C27.896 159.883 27.6971 160.082 27.4563 160.22C27.2154 160.359 26.9415 160.43 26.6631 160.428C26.0117 160.428 25.2344 160.062 25.2344 158.579V156.109H25.9868V158.459C25.9868 159.262 26.2255 159.803 26.91 159.803C27.1273 159.798 27.3381 159.729 27.5154 159.605C27.6926 159.48 27.8281 159.306 27.9045 159.105C27.9499 158.979 27.9734 158.847 27.9741 158.713V156.121H28.7265L28.7216 159.185Z" fill="#F34511"/>
<path d="M29.9314 160.338C29.948 160.049 29.9645 159.623 29.9645 159.246V154.144H30.7104V156.796H30.727C30.866 156.549 31.0718 156.346 31.3212 156.209C31.5707 156.072 31.8539 156.006 32.1391 156.019C33.165 156.019 33.8926 156.893 33.8827 158.174C33.8827 159.684 32.9512 160.433 32.0264 160.433C31.7425 160.447 31.4604 160.38 31.2145 160.239C30.9685 160.099 30.7692 159.89 30.6408 159.639H30.6159L30.5811 160.338H29.9314ZM30.7104 158.646C30.7127 158.74 30.7238 158.833 30.7435 158.925C30.8024 159.178 30.946 159.405 31.1511 159.568C31.3561 159.731 31.6108 159.821 31.8739 159.823C32.6595 159.823 33.1302 159.167 33.1302 158.2C33.1302 157.353 32.7026 156.63 31.8987 156.63C31.6289 156.638 31.3695 156.735 31.1619 156.905C30.9543 157.076 30.8105 157.31 30.7535 157.571C30.7279 157.674 30.7135 157.78 30.7104 157.886V158.646Z" fill="#F34511"/>
<path d="M34.829 157.432C34.829 156.94 34.8207 156.507 34.7942 156.121H35.4572L35.4837 156.95H35.5185C35.7058 156.383 36.1599 156.026 36.6654 156.026C36.7377 156.024 36.8098 156.034 36.8792 156.053V156.776C36.7942 156.759 36.7075 156.75 36.6207 156.752C36.0903 156.752 35.7157 157.16 35.6129 157.735C35.591 157.853 35.5793 157.972 35.5781 158.092V160.342H34.834L34.829 157.432Z" fill="#F34511"/>
<path d="M37.9566 158.366C37.9749 159.405 38.6196 159.831 39.3787 159.831C39.7724 159.843 40.1638 159.769 40.5256 159.615L40.6532 160.162C40.2179 160.348 39.7467 160.438 39.2726 160.426C37.9997 160.426 37.2373 159.572 37.2373 158.295C37.2373 157.019 37.9732 156.017 39.1798 156.017C40.5322 156.017 40.8902 157.23 40.8902 158.007C40.8891 158.126 40.8808 158.246 40.8654 158.364L37.9566 158.366ZM40.1659 157.817C40.1742 157.325 39.9687 156.57 39.1201 156.57C38.3594 156.57 38.0262 157.284 37.9599 157.817H40.1659Z" fill="#F34511"/>
<path d="M44.0525 158.366C44.0691 159.405 44.7155 159.831 45.4729 159.831C45.8666 159.843 46.2581 159.769 46.6198 159.615L46.7491 160.162C46.3147 160.347 45.8447 160.437 45.3718 160.424C44.0956 160.424 43.3348 159.57 43.3348 158.294C43.3348 157.017 44.0691 156.016 45.2757 156.016C46.6281 156.016 46.9878 157.229 46.9878 158.005C46.9866 158.125 46.9783 158.244 46.9629 158.363L44.0525 158.366ZM46.2602 157.817C46.2701 157.325 46.0646 156.57 45.216 156.57C44.4552 156.57 44.1204 157.284 44.0558 157.817H46.2602Z" fill="#F34511"/>
<path d="M47.9159 154.144H48.6684V160.338H47.9159V154.144Z" fill="#F34511"/>
<path d="M52.1655 158.366C52.1838 159.405 52.8285 159.831 53.5859 159.831C53.9796 159.843 54.3711 159.769 54.7329 159.615L54.8621 160.162C54.4271 160.347 53.9566 160.437 53.4832 160.424C52.2086 160.424 51.4479 159.57 51.4479 158.294C51.4479 157.017 52.1838 156.016 53.3887 156.016C54.7411 156.016 55.1008 157.229 55.1008 158.005C55.0996 158.125 55.0913 158.244 55.0759 158.363L52.1655 158.366ZM54.3732 157.817C54.3815 157.325 54.1776 156.57 53.329 156.57C52.5683 156.57 52.2335 157.284 52.1688 157.817H54.3732Z" fill="#F34511"/>
<path d="M55.9262 159.552C56.2231 159.743 56.5671 159.848 56.9207 159.857C57.4676 159.857 57.7245 159.579 57.7245 159.23C57.7245 158.881 57.5107 158.663 56.9555 158.453C56.2096 158.182 55.8599 157.764 55.8599 157.258C55.8599 156.578 56.3986 156.019 57.2869 156.019C57.6442 156.016 57.9959 156.106 58.3062 156.281L58.119 156.84C57.8658 156.679 57.5712 156.594 57.2704 156.594C56.8262 156.594 56.5776 156.856 56.5776 157.171C56.5776 157.52 56.8262 157.678 57.3665 157.886C58.0842 158.166 58.4521 158.531 58.4521 159.159C58.4521 159.902 57.8869 160.424 56.9041 160.424C56.4984 160.431 56.0982 160.331 55.7439 160.136L55.9262 159.552Z" fill="#F34511"/>
<path d="M59.4133 157.494C59.4133 156.952 59.3951 156.511 59.3785 156.114H60.0531L60.0896 156.84H60.1061C60.2515 156.583 60.4657 156.37 60.7254 156.226C60.9851 156.081 61.2801 156.01 61.5779 156.021C62.5724 156.021 63.3315 156.886 63.3315 158.168C63.3315 159.685 62.4249 160.434 61.4486 160.434C61.1967 160.445 60.9464 160.39 60.7227 160.275C60.499 160.16 60.3098 159.989 60.1741 159.779H60.1559V162.073H59.4117L59.4133 157.494ZM60.1559 158.623C60.1577 158.729 60.1687 158.834 60.189 158.938C60.2482 159.191 60.3918 159.418 60.5968 159.581C60.8019 159.744 61.0564 159.833 61.3194 159.836C62.1149 159.836 62.5757 159.18 62.5757 158.205C62.5757 157.358 62.1414 156.635 61.3442 156.635C61.0745 156.646 60.8162 156.746 60.6102 156.918C60.4042 157.091 60.2624 157.326 60.2072 157.587C60.1764 157.689 60.1591 157.794 60.1559 157.9V158.623Z" fill="#F34511"/>
<path d="M66.57 160.337L66.5104 159.805H66.4839C66.3397 160.003 66.1492 160.163 65.9287 160.272C65.7082 160.382 65.4642 160.437 65.2176 160.433C65.0522 160.442 64.8866 160.418 64.7313 160.361C64.576 160.304 64.4342 160.216 64.3151 160.102C64.1959 159.988 64.102 159.851 64.0391 159.699C63.9762 159.548 63.9457 159.385 63.9497 159.221C63.9497 158.2 64.8397 157.641 66.4358 157.65V157.563C66.4358 157.214 66.3413 156.579 65.4944 156.579C65.1124 156.581 64.7388 156.69 64.4171 156.894L64.2513 156.388C64.6593 156.137 65.1315 156.006 65.6121 156.012C66.8767 156.012 67.1866 156.894 67.1866 157.74V159.318C67.1809 159.657 67.2036 159.996 67.2545 160.331L66.57 160.337ZM66.4573 158.182C65.6369 158.166 64.7038 158.313 64.7038 159.134C64.6946 159.23 64.7064 159.327 64.7385 159.418C64.7705 159.509 64.8221 159.592 64.8896 159.661C64.9571 159.731 65.039 159.785 65.1297 159.82C65.2203 159.855 65.3176 159.871 65.4148 159.865C65.6352 159.869 65.8508 159.802 66.0298 159.674C66.2088 159.547 66.3419 159.367 66.4093 159.159C66.4366 159.081 66.4511 158.999 66.4524 158.917L66.4573 158.182Z" fill="#F34511"/>
<path d="M71.3483 160.18C70.9761 160.35 70.5697 160.433 70.16 160.424C68.9103 160.424 68.0981 159.561 68.0981 158.269C68.0981 156.978 68.9699 156.027 70.3207 156.027C70.6812 156.024 71.038 156.098 71.3666 156.245L71.2008 156.84C70.9334 156.696 70.6316 156.627 70.3274 156.639C69.3777 156.639 68.8655 157.353 68.8655 158.235C68.8655 159.218 69.4821 159.815 70.3025 159.815C70.6227 159.817 70.9389 159.744 71.2257 159.603L71.3483 160.18Z" fill="#F34511"/>
<path d="M73.0638 154.931C73.0675 154.994 73.0576 155.057 73.0348 155.115C73.0119 155.174 72.9767 155.228 72.9314 155.272C72.8861 155.316 72.8317 155.351 72.772 155.373C72.7122 155.395 72.6484 155.404 72.5849 155.399C72.5237 155.399 72.4633 155.387 72.4071 155.363C72.351 155.339 72.3003 155.304 72.2581 155.26C72.2159 155.216 72.183 155.165 72.1614 155.108C72.1398 155.051 72.1299 154.991 72.1324 154.931C72.1297 154.868 72.1399 154.806 72.1624 154.747C72.1849 154.689 72.2192 154.635 72.2633 154.591C72.3073 154.546 72.3602 154.51 72.4186 154.486C72.477 154.462 72.5398 154.45 72.6031 154.451C72.6661 154.449 72.7287 154.461 72.7868 154.485C72.845 154.509 72.8975 154.545 72.9408 154.59C72.9842 154.635 73.0176 154.689 73.0387 154.747C73.0599 154.806 73.0685 154.869 73.0638 154.931ZM72.2269 160.339V156.116H72.9793V160.339H72.2269Z" fill="#F34511"/>
<path d="M77.9747 158.191C77.9747 159.754 76.9123 160.433 75.9128 160.433C74.7908 160.433 73.924 159.595 73.924 158.261C73.924 156.848 74.8305 156.019 75.9775 156.019C77.1708 156.019 77.9747 156.901 77.9747 158.191ZM74.6897 158.235C74.6897 159.159 75.2101 159.857 75.946 159.857C76.6819 159.857 77.2056 159.167 77.2056 158.218C77.2056 157.502 76.8526 156.594 75.9642 156.594C75.0758 156.594 74.6897 157.432 74.6897 158.235Z" fill="#F34511"/>
<path d="M80.731 157.494C80.731 156.952 80.7145 156.511 80.6979 156.114H81.3708L81.4039 156.84H81.4205C81.5664 156.583 81.781 156.37 82.0409 156.226C82.3008 156.081 82.5959 156.01 82.8939 156.021C83.8884 156.021 84.6458 156.886 84.6458 158.168C84.6458 159.685 83.7392 160.434 82.7647 160.434C82.5125 160.445 82.262 160.39 82.0381 160.275C81.8142 160.16 81.6247 159.989 81.4885 159.779H81.4719V162.073H80.7277L80.731 157.494ZM81.4752 158.618C81.4764 158.724 81.4886 158.83 81.5117 158.933C81.5688 159.187 81.7117 159.414 81.9168 159.578C82.1219 159.741 82.3771 159.83 82.6404 159.831C83.4359 159.831 83.8967 159.175 83.8967 158.2C83.8967 157.353 83.4608 156.63 82.6652 156.63C82.3953 156.641 82.1367 156.74 81.9306 156.912C81.7245 157.085 81.5829 157.321 81.5282 157.583C81.4968 157.684 81.479 157.789 81.4752 157.896V158.618Z" fill="#F34511"/>
<path d="M86.0114 158.366C86.028 159.405 86.6744 159.831 87.4335 159.831C87.8272 159.843 88.2186 159.769 88.5804 159.615L88.708 160.162C88.2758 160.347 87.8082 160.437 87.3374 160.426C86.0628 160.426 85.3004 159.572 85.3004 158.295C85.3004 157.019 86.0346 156.017 87.2429 156.017C88.5953 156.017 88.9533 157.23 88.9533 158.007C88.9522 158.126 88.9439 158.246 88.9285 158.364L86.0114 158.366ZM88.2191 157.817C88.2291 157.325 88.0235 156.57 87.1749 156.57C86.4142 156.57 86.0811 157.284 86.0148 157.817H88.2191Z" fill="#F34511"/>
<path d="M89.8782 157.432C89.8782 156.94 89.87 156.507 89.8451 156.121H90.5081L90.5346 156.95H90.5677C90.7567 156.383 91.2091 156.026 91.7146 156.026C91.7869 156.024 91.8591 156.033 91.9285 156.053V156.776C91.844 156.759 91.7578 156.75 91.6716 156.752C91.1428 156.752 90.765 157.16 90.6622 157.735C90.6416 157.853 90.6305 157.972 90.629 158.092V160.342H89.8832L89.8782 157.432Z" fill="#F34511"/>
<path d="M93.0057 160.338V156.701H92.424V156.114H93.0057V155.916C93.0057 155.321 93.135 154.78 93.4847 154.441C93.6187 154.313 93.7771 154.212 93.9506 154.145C94.1241 154.078 94.3094 154.045 94.4957 154.049C94.7149 154.048 94.9322 154.089 95.1355 154.17L95.0344 154.764C94.8839 154.697 94.7202 154.664 94.5554 154.669C93.9123 154.669 93.7499 155.244 93.7499 155.888V156.114H94.7443V156.701H93.7499V160.338H93.0057Z" fill="#F34511"/>
<path d="M95.7338 158.366C95.752 159.405 96.3967 159.831 97.1542 159.831C97.5479 159.843 97.9394 159.769 98.3011 159.615L98.4304 160.162C97.9955 160.348 97.5249 160.437 97.0514 160.424C95.7769 160.424 95.0161 159.57 95.0161 158.294C95.0161 157.017 95.752 156.016 96.9569 156.016C98.3094 156.016 98.669 157.229 98.669 158.005C98.6679 158.125 98.6596 158.244 98.6442 158.363L95.7338 158.366ZM97.9431 157.817C97.9431 157.325 97.7459 156.57 96.8973 156.57C96.1365 156.57 95.8017 157.284 95.7371 157.817H97.9431Z" fill="#F34511"/>
<path d="M102.549 160.18C102.177 160.35 101.77 160.433 101.361 160.424C100.111 160.424 99.299 159.561 99.299 158.269C99.299 156.978 100.169 156.027 101.522 156.027C101.882 156.024 102.239 156.098 102.567 156.245L102.402 156.84C102.134 156.696 101.832 156.627 101.528 156.639C100.578 156.639 100.066 157.353 100.066 158.235C100.066 159.218 100.683 159.815 101.503 159.815C101.821 159.817 102.135 159.745 102.42 159.607L102.549 160.18Z" fill="#F34511"/>
<path d="M104.443 154.903V156.114H105.522V156.701H104.443V158.977C104.443 159.5 104.591 159.797 105.01 159.797C105.157 159.799 105.304 159.781 105.446 159.743L105.479 160.321C105.267 160.396 105.042 160.431 104.816 160.424C104.665 160.432 104.513 160.407 104.372 160.35C104.232 160.294 104.106 160.207 104.003 160.097C103.789 159.867 103.713 159.493 103.713 158.997V156.694H103.066V156.108H103.709V155.098L104.443 154.903Z" fill="#F34511"/>
<path d="M110.064 158.191C110.064 159.754 109.001 160.433 108.002 160.433C106.88 160.433 106.013 159.595 106.013 158.261C106.013 156.848 106.92 156.019 108.067 156.019C109.258 156.019 110.064 156.901 110.064 158.191ZM106.777 158.235C106.777 159.159 107.299 159.857 108.035 159.857C108.771 159.857 109.295 159.167 109.295 158.218C109.295 157.502 108.942 156.594 108.053 156.594C107.165 156.594 106.777 157.432 106.777 158.235Z" fill="#F34511"/>
<path d="M110.316 161.409C110.546 160.73 110.717 160.033 110.828 159.325L111.668 159.238C111.472 159.971 111.199 160.682 110.854 161.359L110.316 161.409Z" fill="#F34511"/>
<path d="M117.336 160.18C116.964 160.35 116.558 160.433 116.148 160.424C114.898 160.424 114.086 159.561 114.086 158.269C114.086 156.978 114.958 156.027 116.309 156.027C116.669 156.024 117.025 156.098 117.353 156.245L117.187 156.84C116.92 156.696 116.618 156.627 116.314 156.639C115.364 156.639 114.852 157.353 114.852 158.235C114.852 159.218 115.469 159.815 116.289 159.815C116.609 159.817 116.925 159.744 117.212 159.603L117.336 160.18Z" fill="#F34511"/>
<path d="M118.215 157.432C118.215 156.94 118.215 156.507 118.182 156.121H118.845L118.873 156.95H118.906C119.095 156.383 119.546 156.026 120.053 156.026C120.125 156.024 120.197 156.034 120.267 156.053V156.776C120.182 156.759 120.096 156.75 120.01 156.752C119.48 156.752 119.103 157.16 118.999 157.735C118.978 157.853 118.967 157.972 118.966 158.092V160.342H118.215V157.432Z" fill="#F34511"/>
<path d="M121.342 158.366C121.359 159.405 122.005 159.831 122.764 159.831C123.158 159.843 123.55 159.769 123.911 159.615L124.039 160.162C123.605 160.347 123.135 160.437 122.662 160.424C121.387 160.424 120.625 159.57 120.625 158.294C120.625 157.017 121.359 156.016 122.567 156.016C123.92 156.016 124.278 157.229 124.278 158.005C124.277 158.125 124.268 158.244 124.253 158.363L121.342 158.366ZM123.55 157.817C123.56 157.325 123.355 156.57 122.508 156.57C121.745 156.57 121.412 157.284 121.347 157.817H123.55Z" fill="#F34511"/>
<path d="M127.5 160.337L127.44 159.805H127.413C127.27 160.003 127.08 160.163 126.859 160.272C126.639 160.382 126.395 160.437 126.149 160.432C125.983 160.442 125.818 160.418 125.663 160.361C125.507 160.304 125.366 160.216 125.246 160.102C125.127 159.988 125.033 159.851 124.97 159.699C124.907 159.548 124.877 159.385 124.881 159.221C124.881 158.2 125.771 157.641 127.367 157.65V157.563C127.367 157.214 127.271 156.579 126.426 156.579C126.043 156.581 125.669 156.69 125.347 156.894L125.181 156.388C125.589 156.137 126.061 156.007 126.542 156.012C127.808 156.012 128.116 156.894 128.116 157.74V159.318C128.111 159.657 128.133 159.996 128.184 160.331L127.5 160.337ZM127.389 158.182C126.56 158.166 125.633 158.313 125.633 159.134C125.624 159.23 125.636 159.327 125.668 159.418C125.7 159.509 125.752 159.592 125.819 159.661C125.887 159.731 125.969 159.785 126.059 159.82C126.15 159.855 126.247 159.871 126.344 159.865C126.565 159.868 126.78 159.801 126.959 159.674C127.138 159.547 127.271 159.366 127.339 159.159C127.366 159.081 127.381 158.999 127.382 158.916L127.389 158.182Z" fill="#F34511"/>
<path d="M132.046 154.903V156.114H133.125V156.701H132.046V158.977C132.046 159.5 132.192 159.797 132.613 159.797C132.76 159.799 132.907 159.781 133.049 159.743L133.083 160.321C132.871 160.396 132.646 160.431 132.42 160.424C132.269 160.432 132.117 160.407 131.977 160.351C131.836 160.294 131.71 160.207 131.607 160.097C131.395 159.867 131.317 159.493 131.317 158.997V156.694H130.674V156.108H131.317V155.098L132.046 154.903Z" fill="#F34511"/>
<path d="M137.434 159.185C137.434 159.623 137.434 160.005 137.467 160.333H136.804L136.763 159.643H136.746C136.61 159.883 136.411 160.082 136.171 160.22C135.93 160.359 135.656 160.43 135.377 160.428C134.726 160.428 133.949 160.062 133.949 158.579V156.109H134.701V158.459C134.701 159.262 134.94 159.803 135.624 159.803C135.842 159.798 136.052 159.729 136.23 159.605C136.407 159.48 136.542 159.306 136.619 159.105C136.665 158.979 136.688 158.847 136.688 158.713V156.121H137.441L137.434 159.185Z" fill="#F34511"/>
<path d="M140.49 154.144H141.245V156.778H141.261C141.387 156.552 141.574 156.365 141.8 156.237C142.032 156.097 142.298 156.022 142.571 156.019C143.127 156.019 144.017 156.368 144.017 157.822V160.334H143.265V157.909C143.265 157.229 143.016 156.653 142.305 156.653C142.077 156.66 141.856 156.738 141.675 156.875C141.494 157.013 141.361 157.204 141.296 157.42C141.255 157.538 141.237 157.662 141.245 157.786V160.334H140.49V154.144Z" fill="#F34511"/>
<path d="M146.073 154.931C146.073 155.053 146.024 155.17 145.936 155.256C145.849 155.343 145.73 155.391 145.607 155.391C145.483 155.391 145.365 155.343 145.278 155.256C145.19 155.17 145.141 155.053 145.141 154.931C145.138 154.868 145.149 154.806 145.171 154.747C145.194 154.689 145.228 154.635 145.272 154.591C145.316 154.546 145.369 154.51 145.427 154.486C145.486 154.462 145.549 154.45 145.612 154.451C145.675 154.449 145.737 154.461 145.796 154.485C145.854 154.509 145.906 154.545 145.95 154.59C145.993 154.635 146.026 154.689 146.048 154.747C146.069 154.806 146.077 154.869 146.073 154.931ZM145.234 160.339V156.116H145.988V160.339H145.234Z" fill="#F34511"/>
<path d="M147.133 159.552C147.43 159.743 147.774 159.848 148.128 159.857C148.675 159.857 148.933 159.579 148.933 159.23C148.933 158.88 148.72 158.663 148.163 158.453C147.418 158.182 147.067 157.764 147.067 157.258C147.067 156.578 147.606 156.019 148.497 156.019C148.854 156.016 149.204 156.107 149.513 156.281L149.326 156.84C149.074 156.679 148.78 156.594 148.479 156.594C148.035 156.594 147.785 156.856 147.785 157.171C147.785 157.52 148.035 157.678 148.574 157.886C149.291 158.166 149.659 158.531 149.659 159.159C149.659 159.902 149.094 160.424 148.111 160.424C147.706 160.431 147.305 160.332 146.951 160.136L147.133 159.552Z" fill="#F34511"/>
<path d="M151.527 154.903V156.114H152.606V156.701H151.527V158.977C151.527 159.5 151.673 159.797 152.092 159.797C152.239 159.799 152.386 159.781 152.528 159.743L152.563 160.321C152.35 160.396 152.126 160.431 151.9 160.424C151.748 160.432 151.597 160.407 151.456 160.351C151.315 160.294 151.189 160.207 151.086 160.097C150.872 159.867 150.796 159.493 150.796 158.997V156.694H150.153V156.108H150.796V155.098L151.527 154.903Z" fill="#F34511"/>
<path d="M157.147 158.191C157.147 159.754 156.085 160.433 155.086 160.433C153.964 160.433 153.097 159.595 153.097 158.261C153.097 156.848 154.003 156.019 155.15 156.019C156.342 156.019 157.147 156.901 157.147 158.191ZM153.861 158.235C153.861 159.159 154.383 159.857 155.119 159.857C155.855 159.857 156.377 159.167 156.377 158.218C156.377 157.502 156.027 156.594 155.135 156.594C154.244 156.594 153.861 157.432 153.861 158.235Z" fill="#F34511"/>
<path d="M158.092 157.432C158.092 156.94 158.092 156.507 158.059 156.121H158.722L158.75 156.95H158.783C158.972 156.383 159.426 156.026 159.93 156.026C160.002 156.024 160.075 156.034 160.144 156.053V156.776C160.06 156.759 159.973 156.75 159.887 156.752C159.355 156.752 158.98 157.16 158.878 157.735C158.856 157.853 158.844 157.972 158.843 158.092V160.342H158.092V157.432Z" fill="#F34511"/>
<path d="M161.755 154.931C161.755 155.053 161.706 155.17 161.619 155.256C161.531 155.343 161.413 155.391 161.289 155.391C161.166 155.391 161.047 155.343 160.96 155.256C160.873 155.17 160.824 155.053 160.824 154.931C160.821 154.868 160.831 154.806 160.854 154.747C160.876 154.689 160.91 154.635 160.954 154.591C160.998 154.546 161.051 154.51 161.11 154.486C161.168 154.462 161.231 154.45 161.294 154.451C161.357 154.449 161.42 154.461 161.478 154.485C161.536 154.509 161.589 154.545 161.632 154.59C161.675 154.635 161.709 154.689 161.73 154.747C161.751 154.806 161.76 154.869 161.755 154.931ZM160.916 160.339V156.116H161.669V160.339H160.916Z" fill="#F34511"/>
<path d="M165.214 160.337L165.154 159.805H165.128C164.984 160.003 164.793 160.163 164.573 160.272C164.352 160.382 164.108 160.437 163.862 160.433C163.696 160.442 163.531 160.418 163.375 160.361C163.22 160.304 163.078 160.216 162.959 160.102C162.84 159.988 162.746 159.851 162.683 159.699C162.62 159.548 162.59 159.385 162.594 159.221C162.594 158.2 163.484 157.641 165.08 157.65V157.563C165.08 157.214 164.985 156.579 164.138 156.579C163.756 156.581 163.383 156.69 163.061 156.894L162.895 156.388C163.303 156.137 163.775 156.006 164.256 156.012C165.521 156.012 165.831 156.894 165.831 157.74V159.318C165.825 159.657 165.848 159.996 165.898 160.331L165.214 160.337ZM165.103 158.182C164.274 158.166 163.348 158.313 163.348 159.134C163.338 159.23 163.35 159.327 163.382 159.418C163.414 159.509 163.466 159.592 163.534 159.661C163.601 159.731 163.683 159.785 163.774 159.82C163.864 159.855 163.962 159.871 164.059 159.865C164.279 159.869 164.495 159.802 164.674 159.674C164.853 159.547 164.986 159.367 165.053 159.159C165.081 159.081 165.096 158.999 165.098 158.917L165.103 158.182Z" fill="#F34511"/>
<path d="M94.3031 150.62L86 127.5H91.5L97.9572 144.669L116 97.5V109.5L101.422 150.62H94.3031Z" fill="#F34511"/>
<path d="M163.984 143.395C163.984 143.395 161.486 142.365 157.163 140.438C155.023 139.383 152.313 138.54 149.297 137.344C146.301 136.103 142.784 135.096 139.006 133.873L136.113 132.946L133.062 132.178L126.681 130.509C124.487 129.968 122.196 129.599 119.879 129.117C117.555 128.675 115.202 128.109 112.761 127.831C110.336 127.469 107.872 127.107 105.376 126.744C102.875 126.438 100.327 126.276 97.771 126.008L93.9223 125.636C92.6355 125.556 91.3379 125.539 90.0392 125.475L82.2333 125.153C79.616 125.188 77.0027 125.224 74.3931 125.259C73.08 125.285 71.7574 125.271 70.4622 125.319L66.6329 125.578C64.0841 125.777 61.5583 125.869 59.0554 126.103C56.5516 126.405 54.081 126.698 51.6437 126.983C49.1959 127.191 46.8268 127.695 44.5009 128.071C42.1745 128.486 39.8712 128.793 37.6615 129.272L31.2342 130.762L28.1647 131.445C27.1662 131.731 26.1992 132.009 25.2472 132.286C21.4357 133.403 17.894 134.313 14.851 135.472C11.7906 136.577 9.04965 137.358 6.90262 138.339C2.53791 140.137 -2.84621e-05 141.098 -2.84621e-05 141.098C-2.84621e-05 141.098 2.32142 139.617 6.47033 137.132C8.51771 135.81 11.1471 134.589 14.1317 133.1C14.8828 132.731 15.654 132.348 16.4534 131.956C16.8507 131.758 17.2563 131.561 17.6652 131.358L18.934 130.83C20.6643 130.139 22.4762 129.413 24.3699 128.653C25.32 128.274 26.289 127.889 27.2769 127.497L30.3392 126.489L36.8089 124.464C39.0391 123.818 41.36 123.328 43.7237 122.732C46.0875 122.135 48.5089 121.564 51.0003 121.204L58.571 119.978C61.1418 119.63 63.7733 119.449 66.4156 119.201L70.3987 118.847C71.7177 118.764 73.0254 118.772 74.3419 118.738C76.9948 118.686 79.6576 118.633 82.3304 118.578L90.3393 118.966C91.6644 119.037 93.0015 119.075 94.3142 119.197L98.2627 119.657C100.879 119.977 103.484 120.233 106.039 120.649L113.571 122.091C116.052 122.516 118.449 123.174 120.797 123.831C123.145 124.488 125.449 125.043 127.661 125.755L134.069 127.959L137.104 129.054C138.079 129.472 139.037 129.883 139.976 130.289L145.343 132.618L146.604 133.181L147.792 133.812L150.095 135.015C153.057 136.589 155.648 137.891 157.639 139.258C161.692 141.847 163.984 143.395 163.984 143.395Z" fill="#FFF9F9"/>
<path d="M68 119.5L77.5 120C79.5 120 76.3968 119.026 80 119H81.5H83H86.5V93.5V61L116 43V39.5V30.5V26V21L80 0L65 8.95522V34L64.5 75.5L68 77.5V95.5V119.5Z" fill="#FFF9F9"/>
</svg>
